<svg width="180" height="180" viewBox="0 0 180 180" fill="none" xmlns="http://www.w3.org/2000/svg">
<path fill-rule="evenodd" clip-rule="evenodd" d="M144.154 55.5644L144.942 56.8112L145.674 58.0572L146.406 59.332L147.082 60.6334L147.73 61.9356L148.348 63.2658L148.94 64.6233L149.504 65.9801L150.039 67.3376L150.545 68.7232L150.996 70.136L151.446 71.549L151.84 72.9618L152.178 74.402L152.516 75.8429L152.798 77.2831L153.051 78.7514L153.276 80.2196L153.472 81.6878L153.614 83.1561L153.726 84.6524L153.783 86.1479L153.81 87.6442V89.1397L153.783 90.6633L153.699 92.1597L153.558 93.6552L153.416 95.1788L153.191 96.7024L152.966 98.1987L152.656 99.7223L152.347 101.218L152.178 101.662L151.98 102.049L151.755 102.437L151.502 102.798L151.249 103.13L150.967 103.462L150.658 103.74L150.32 104.016L149.982 104.266L149.616 104.487L149.222 104.709L148.828 104.903L148.405 105.069L147.955 105.235L147.505 105.346L147.054 105.485L145.393 105.734L143.761 105.927L142.099 106.066L140.467 106.122L138.834 106.15L137.229 106.094L135.624 105.983L134.02 105.817L132.444 105.567L130.866 105.29L129.318 104.958L127.799 104.57L126.278 104.099L124.786 103.601L123.293 103.046L121.857 102.437L120.422 101.772L119.014 101.052L117.635 100.277L116.283 99.4728L114.961 98.6143L113.694 97.6997L112.427 96.7304L111.188 95.7332L110.006 94.6806L108.852 93.5725L107.725 92.4365L106.628 91.2451L105.586 90.0263L104.573 88.7522L103.615 87.422L102.686 86.0645L103.672 85.5935L104.657 85.0672L105.613 84.5136L106.544 83.8766L107.445 83.2395L108.344 82.519L109.217 81.7712L110.063 80.9954L110.879 80.1642L111.667 79.3057L112.427 78.3911L113.131 77.4492L113.834 76.48L114.483 75.4547L115.102 74.402L115.693 73.3213L116.227 72.2133L116.734 71.0499L117.185 69.8865L117.579 68.6678L117.945 67.421L118.254 66.1469L118.537 64.8721L118.733 63.5426L118.902 62.1851L118.986 60.8276L119.042 59.4148L119.014 58.0018L118.93 56.5617L118.789 55.1208L118.593 53.6252L118.338 52.1289L118.17 51.353L118.001 50.578L117.833 49.7741L117.635 48.999L117.41 48.1951L117.157 47.392L116.903 46.5889L116.621 45.7849L116.03 44.206L115.383 42.599L114.678 41.02L113.918 39.4411L113.102 37.8902L112.258 36.3666L111.386 34.8702L110.456 33.402L109.499 31.9891L108.541 30.6043L107.556 29.2741L106.544 28L107.809 28.3048L109.105 28.6924L110.428 29.108L111.751 29.579L113.102 30.078L114.454 30.6316L115.806 31.2414L117.157 31.8784L118.537 32.5708L119.888 33.2912L121.267 34.0671L122.617 34.8702L123.97 35.7014L125.292 36.5599L126.615 37.4465L127.91 38.3611L129.206 39.303L130.473 40.2723L131.684 41.2695L132.893 42.2949L134.076 43.3475L135.23 44.4001L136.328 45.4528L137.398 46.5327L138.411 47.6415L139.396 48.7495L140.326 49.8848L141.198 50.9936L142.014 52.1289L142.803 53.2923L143.506 54.4284L144.154 55.5644ZM91.9891 105.595L90.8339 104.625L89.7087 103.628L88.6382 102.603L87.6532 101.523L86.6953 100.387L85.7943 99.2513L84.9504 98.088L84.1628 96.8692L83.4306 95.6225L82.727 94.3756L82.1073 93.0735L81.5162 91.7714L80.9806 90.4419L80.5028 89.0844L80.0804 87.7269L79.7135 86.3421L79.4045 84.9564L79.1232 83.5436L78.8974 82.1035L78.7571 80.6905L78.6168 79.2496L78.5598 77.7814V76.3412L78.5883 74.8729L78.6731 73.4328L78.8126 71.9919L79.0099 70.5236L79.2357 69.0834L79.5162 67.6425L79.8553 66.2023L80.2484 64.7894L80.7 63.3765L79.292 63.6814L77.8562 64.0136L76.4489 64.3738L75.0408 64.7614L73.605 65.177L72.1977 65.6206L70.7905 66.0915L69.3824 66.5898L67.9751 67.1442L66.5956 67.6979L65.216 68.2795L63.8365 68.8893L62.4854 69.5543L61.1622 70.2188L59.8381 70.9392L58.5434 71.6869L57.2478 72.4628L55.9823 73.294L54.7431 74.1252L53.5323 75.0117L52.3501 75.9256L51.1963 76.8675L50.0696 77.8648L48.9721 78.8902L47.9016 79.9428L46.8612 81.0507L45.8747 82.1861L44.9182 83.3502L44.0165 84.569L43.1156 85.8157L42.2994 87.1179L41.5118 88.4473L40.9484 89.4166L40.385 90.4139L39.8217 91.4392L39.2875 92.4918L38.7527 93.5999L38.2456 94.6806L37.7678 95.8158L37.3169 96.9799L36.866 98.1434L36.4444 99.3067L36.0499 100.498L35.7123 101.717L35.374 102.936L35.0934 104.154L34.8391 105.374L34.6418 106.621L34.4738 107.839L34.3613 109.086L34.2765 110.305L34.2488 111.552L34.2765 112.77L34.3328 113.989L34.4738 115.181L34.6703 116.372L34.8961 117.563L35.206 118.726L35.599 119.862L36.0214 120.97L36.5292 122.078L37.1203 123.159L37.7678 124.211L38.4999 125.237L39.8217 127.009L41.1735 128.727L42.61 130.389L44.1021 131.968L45.6219 133.492L47.198 134.96L48.8311 136.345L50.5204 137.702L52.2368 138.977L53.9832 140.168L55.7843 141.332L57.6147 142.412L59.4728 143.437L61.3865 144.379L63.3016 145.266L65.2723 146.096L67.2429 146.872L69.2421 147.564L71.2683 148.202L73.323 148.756L75.3784 149.282L77.4616 149.726L79.5448 150.086L81.6565 150.418L83.7674 150.64L85.8791 150.834L88.0186 150.945L90.1303 151H92.2412L94.3806 150.917L96.4923 150.75L98.604 150.557L100.631 150.28L102.658 149.892L104.657 149.448L106.684 148.95L108.683 148.34L110.681 147.676L112.68 146.956L114.651 146.152L116.594 145.266L118.537 144.324L120.451 143.327L122.336 142.274L124.166 141.138L125.996 139.946L127.77 138.7L129.515 137.398L131.205 136.041L132.865 134.655L134.47 133.187L136.047 131.663L137.539 130.112L138.975 128.505L140.383 126.871L141.706 125.181L142.944 123.464L144.154 121.691L145.253 119.862L146.322 118.034L147.28 116.15L148.181 114.239L148.968 112.299L149.7 110.332L148.04 111.025L146.35 111.662L144.605 112.271L142.831 112.826L141.03 113.324L139.2 113.795L137.342 114.183L135.484 114.544L133.569 114.848L131.654 115.097L129.741 115.291L127.799 115.43L125.855 115.513L123.913 115.541L121.971 115.513L120.029 115.43L118.085 115.263L116.17 115.07L114.257 114.792L112.371 114.488L110.484 114.1L108.627 113.657L106.797 113.131L104.995 112.549L103.221 111.911L101.503 111.219L99.7863 110.443L98.1262 109.612L96.5209 108.726L94.9725 107.756L93.4527 106.703L91.9891 105.595ZM106.431 59.3594L106.402 57.5863L106.289 55.8132L106.065 54.0961L105.782 52.3784L105.389 50.6606L104.882 49.0263L104.319 47.392L103.643 45.7849L102.912 44.2614L102.067 42.7658L101.166 41.2976L100.181 39.912L99.1104 38.5826L97.9566 37.3085L96.7467 36.1171L95.4519 34.9809L94.1001 33.9283L92.6643 32.9591L91.1722 32.0998L89.6231 31.2967L87.99 30.5762L86.33 29.9945L84.5843 29.4963L82.7832 29.0807L80.9243 28.8031L79.0376 28.6371L77.0963 28.5817L75.0971 28.6371L73.0424 28.8585L70.9307 29.1634L68.8198 29.6343L66.6233 30.2441L64.5124 31.0199L62.4292 31.9064L60.3737 32.8757L58.3746 33.901L56.4039 35.0363L54.4895 36.2278L52.6036 37.5019L50.7732 38.8321L49.0006 40.2449L47.282 41.7132L45.5941 43.2368L43.9896 44.8158L42.4405 46.4773L40.9199 48.1678L39.4841 49.9129L38.1045 51.7133L36.7813 53.5698L35.5428 55.4256L34.3613 57.3648L33.2622 59.304L32.2218 61.2986L31.2353 63.3212L30.3629 65.3711L29.5475 67.4483L28.8154 69.5263L28.1395 71.6316L27.5761 73.765L27.069 75.8983L26.6759 78.059L26.3653 80.2196L26.1403 82.3802L26 84.5409L28.0269 81.9093L30.0539 79.3884L32.1093 76.9783L34.1632 74.7069L36.2464 72.5462L38.3296 70.4963L40.4706 68.5571L42.61 66.7559L44.7772 65.0662L46.9737 63.4872L49.1971 62.0191L51.4491 60.6888L53.7288 59.4701L56.0663 58.3901L58.4308 57.3929L60.8516 56.5617L63.3016 55.8132L65.7794 55.2041L68.3119 54.7051L70.903 54.3449L73.5488 54.0681L76.2231 53.9573L78.9537 53.9301L81.769 54.0408L84.6121 54.2896L87.5407 54.6498L90.5248 55.1208L93.5645 55.7305L96.6619 56.451L99.8426 57.2813L103.109 58.2513L106.431 59.3594Z" fill="#DB2E27"/>
</svg>
