<svg width="60" height="60" fill="none" xmlns="http://www.w3.org/2000/svg"><rect width="60" height="60" rx="30" fill="#DB2E27"/><path fill-rule="evenodd" clip-rule="evenodd" d="M39.3379 24.2748L39.4735 24.49L39.5995 24.705L39.7255 24.925L39.8419 25.1496L39.9533 25.3743L40.0598 25.6039L40.1617 25.8382L40.2587 26.0724L40.3508 26.3067L40.4379 26.5458L40.5155 26.7896L40.593 27.0335L40.6608 27.2773L40.719 27.5259L40.7771 27.7746L40.8257 28.0231L40.8693 28.2765L40.9079 28.5299L40.9418 28.7833L40.9662 29.0367L40.9855 29.2949L40.9952 29.5531L41 29.8113V30.0694L40.9952 30.3324L40.9808 30.5906L40.9565 30.8487L40.9321 31.1117L40.8933 31.3746L40.8547 31.6329L40.8013 31.8958L40.7481 32.1539L40.719 32.2305L40.6849 32.2974L40.6462 32.3644L40.6027 32.4265L40.559 32.4839L40.5106 32.5412L40.4574 32.5891L40.3992 32.6369L40.3411 32.6799L40.2779 32.7182L40.2103 32.7564L40.1424 32.7899L40.0695 32.8186L39.9922 32.8472L39.9146 32.8663L39.837 32.8903L39.5511 32.9333L39.2701 32.9667L38.9841 32.9907L38.7031 33.0002L38.4222 33.0051L38.1458 32.9954L37.8696 32.9763L37.5934 32.9476L37.3221 32.9046L37.0506 32.8568L36.7841 32.7994L36.5226 32.7324L36.2609 32.6511L36.004 32.5652L35.7471 32.4695L35.4999 32.3644L35.2528 32.2496L35.0106 32.1252L34.7731 31.9915L34.5404 31.8527L34.3129 31.7046L34.0948 31.5467L33.8767 31.3794L33.6634 31.2073L33.46 31.0257L33.2613 30.8344L33.0674 30.6384L32.8784 30.4328L32.6991 30.2224L32.5248 30.0025L32.3599 29.7729L32.1999 29.5387L32.3697 29.4574L32.5392 29.3665L32.7039 29.271L32.864 29.1611L33.0191 29.0511L33.1739 28.9268L33.3242 28.7977L33.4697 28.6638L33.6102 28.5204L33.7459 28.3722L33.8767 28.2143L33.9978 28.0518L34.1189 27.8845L34.2305 27.7076L34.337 27.5259L34.4388 27.3394L34.5307 27.1481L34.618 26.9474L34.6956 26.7466L34.7634 26.5362L34.8266 26.3211L34.8796 26.1012L34.9283 25.8812L34.9621 25.6517L34.9912 25.4174L35.0056 25.1831L35.0153 24.9393L35.0106 24.6954L34.996 24.4469L34.9718 24.1982L34.938 23.9401L34.8942 23.6819L34.8652 23.5479L34.8361 23.4142L34.8072 23.2754L34.7731 23.1417L34.7344 23.0029L34.6908 22.8643L34.6471 22.7257L34.5986 22.587L34.4969 22.3145L34.3855 22.0371L34.2642 21.7646L34.1334 21.4921L33.9929 21.2244L33.8477 20.9615L33.6975 20.7032L33.5374 20.4499L33.3727 20.206L33.2078 19.967L33.0383 19.7374L32.864 19.5175L33.0818 19.5702L33.3048 19.637L33.5326 19.7088L33.7604 19.7901L33.9929 19.8762L34.2256 19.9717L34.4583 20.077L34.6908 20.1869L34.9283 20.3064L35.1609 20.4307L35.3983 20.5646L35.6307 20.7032L35.8636 20.8467L36.0912 20.9949L36.3188 21.1479L36.5418 21.3057L36.7648 21.4683L36.9829 21.6356L37.1913 21.8077L37.3995 21.9846L37.6031 22.1663L37.8017 22.348L37.9908 22.5296L38.175 22.716L38.3493 22.9074L38.5189 23.0986L38.679 23.2946L38.829 23.4859L38.9695 23.6819L39.1052 23.8826L39.2263 24.0787L39.3379 24.2748ZM30.3587 32.9094L30.1599 32.742L29.9662 32.5699L29.7819 32.393L29.6124 32.2065L29.4475 32.0106L29.2924 31.8145L29.1471 31.6137L29.0116 31.4034L28.8855 31.1882L28.7644 30.973L28.6578 30.7483L28.556 30.5236L28.4638 30.2941L28.3816 30.0599L28.3089 29.8256L28.2457 29.5866L28.1925 29.3474L28.1441 29.1036L28.1052 28.855L28.0811 28.6112L28.0569 28.3625L28.0471 28.1091V27.8606L28.052 27.6072L28.0666 27.3586L28.0906 27.1099L28.1246 26.8565L28.1635 26.608L28.2117 26.3593L28.2701 26.1107L28.3378 25.8669L28.4155 25.623L28.1731 25.6757L27.926 25.733L27.6838 25.7952L27.4414 25.862L27.1943 25.9338L26.952 26.0103L26.7098 26.0916L26.4674 26.1776L26.2252 26.2733L25.9877 26.3688L25.7503 26.4692L25.5128 26.5745L25.2802 26.6892L25.0525 26.8039L24.8246 26.9282L24.6017 27.0573L24.3787 27.1912L24.1609 27.3347L23.9475 27.4781L23.7391 27.6311L23.5356 27.7888L23.337 27.9514L23.1431 28.1235L22.9542 28.3005L22.7699 28.4821L22.5908 28.6734L22.421 28.8693L22.2564 29.0702L22.1012 29.2806L21.9461 29.4957L21.8056 29.7205L21.67 29.9499L21.5731 30.1172L21.4761 30.2893L21.3791 30.4663L21.2872 30.6479L21.1951 30.8392L21.1078 31.0257L21.0256 31.2216L20.948 31.4225L20.8704 31.6233L20.7978 31.8241L20.7299 32.0297L20.6718 32.24L20.6135 32.4504L20.5653 32.6607L20.5215 32.8712L20.4875 33.0864L20.4586 33.2967L20.4392 33.5119L20.4246 33.7222L20.4199 33.9374L20.4246 34.1477L20.4343 34.3581L20.4586 34.5637L20.4924 34.7693L20.5313 34.9748L20.5846 35.1756L20.6523 35.3716L20.725 35.5629L20.8124 35.7541L20.9141 35.9406L21.0256 36.1223L21.1516 36.2992L21.3791 36.6051L21.6118 36.9016L21.8591 37.1885L22.1159 37.461L22.3775 37.7239L22.6488 37.9774L22.9299 38.2163L23.2207 38.4506L23.5161 38.6707L23.8167 38.8762L24.1268 39.0771L24.4418 39.2634L24.7617 39.4404L25.0911 39.603L25.4207 39.756L25.7599 39.8993L26.0991 40.0332L26.4433 40.1527L26.792 40.2628L27.1457 40.3583L27.4995 40.4491L27.8581 40.5257L28.2167 40.5879L28.5801 40.6452L28.9435 40.6834L29.307 40.7169L29.6753 40.7361L30.0387 40.7456H30.4021L30.7704 40.7312L31.1338 40.7026L31.4973 40.6692L31.8462 40.6213L32.1951 40.5544L32.5392 40.4778L32.8881 40.3918L33.2323 40.2866L33.5761 40.1719L33.9202 40.0476L34.2594 39.909L34.5939 39.756L34.9283 39.5934L35.2578 39.4213L35.5823 39.2396L35.8974 39.0436L36.2123 38.8379L36.5177 38.6227L36.818 38.3981L37.109 38.1639L37.3947 37.9247L37.6709 37.6713L37.9423 37.4084L38.1992 37.1407L38.4463 36.8634L38.6887 36.5813L38.9164 36.2897L39.1296 35.9932L39.3379 35.6872L39.5269 35.3716L39.7109 35.0561L39.8758 34.731L40.0309 34.4011L40.1665 34.0664L40.2925 33.7269L40.0068 33.8465L39.7159 33.9565L39.4155 34.0616L39.1101 34.1573L38.8001 34.2433L38.485 34.3246L38.1653 34.3916L37.8455 34.4537L37.5158 34.5062L37.1863 34.5493L36.8569 34.5828L36.5226 34.6067L36.188 34.621L35.8537 34.6258L35.5194 34.621L35.1851 34.6067L34.8506 34.5779L34.521 34.5446L34.1916 34.4967L33.867 34.4442L33.5423 34.3772L33.2226 34.3007L32.9075 34.2099L32.5973 34.1095L32.2921 33.9994L31.9964 33.8799L31.7008 33.746L31.4151 33.6027L31.1388 33.4497L30.8722 33.2823L30.6106 33.1006L30.3587 32.9094ZM32.8446 24.9297L32.8396 24.6237L32.8202 24.3177L32.7816 24.0214L32.7329 23.7249L32.6653 23.4284L32.578 23.1464L32.481 22.8643L32.3647 22.587L32.2389 22.324L32.0934 22.0659L31.9383 21.8125L31.7687 21.5734L31.5845 21.3439L31.3859 21.1241L31.1776 20.9184L30.9548 20.7224L30.7221 20.5407L30.4749 20.3734L30.2181 20.2251L29.9514 20.0865L29.6703 19.9622L29.3846 19.8618L29.0841 19.7758L28.7741 19.7041L28.4541 19.6562L28.1294 19.6275L27.7952 19.6179L27.4511 19.6275L27.0974 19.6657L26.7339 19.7183L26.3706 19.7996L25.9925 19.9048L25.6291 20.0387L25.2706 20.1917L24.9168 20.359L24.5726 20.536L24.2334 20.7319L23.9039 20.9375L23.5793 21.1574L23.2642 21.387L22.9591 21.6308L22.6633 21.8842L22.3727 22.1472L22.0965 22.4197L21.8299 22.7065L21.5682 22.9982L21.321 23.2994L21.0836 23.6101L20.8558 23.9305L20.6426 24.2508L20.4392 24.5855L20.2501 24.9202L20.071 25.2644L19.9012 25.6135L19.751 25.9673L19.6106 26.3258L19.4846 26.6844L19.3683 27.0477L19.2713 27.4159L19.184 27.7841L19.1163 28.157L19.0629 28.5299L19.0241 28.9028L19 29.2757L19.3489 28.8215L19.6978 28.3865L20.0516 27.9705L20.4051 27.5785L20.7637 27.2056L21.1223 26.8518L21.4908 26.5171L21.8591 26.2063L22.2321 25.9147L22.6102 25.6421L22.9929 25.3888L23.3806 25.1592L23.773 24.9488L24.1753 24.7625L24.5823 24.5903L24.999 24.4469L25.4207 24.3177L25.8472 24.2126L26.2831 24.1265L26.7291 24.0643L27.1846 24.0165L27.6449 23.9974L28.1149 23.9927L28.5995 24.0118L29.0889 24.0548L29.593 24.1169L30.1067 24.1982L30.6299 24.3034L31.163 24.4278L31.7105 24.5711L32.2727 24.7385L32.8446 24.9297Z" fill="white"/></svg>